<!DOCTYPE svg PUBLIC "-//W3C//DTD SVG 1.1//EN" "http://www.w3.org/Graphics/SVG/1.1/DTD/svg11.dtd">
<!-- Uploaded to: SVG Repo, www.svgrepo.com, Transformed by: SVG Repo Mixer Tools -->
<svg fill="#ffffff" height="100px" width="100px" version="1.1" id="Layer_1" xmlns="http://www.w3.org/2000/svg" xmlns:xlink="http://www.w3.org/1999/xlink" viewBox="0 0 512 512" xml:space="preserve">
<g id="SVGRepo_bgCarrier" stroke-width="0"/>
<g id="SVGRepo_tracerCarrier" stroke-linecap="round" stroke-linejoin="round"/>
<g id="SVGRepo_iconCarrier"> <g> <g> <g> <path d="M439.68,148.373C414.72,124.48,378.133,96,345.92,96c-27.733,0-42.773,9.28-57.387,18.24 c-9.173,5.653-17.067,10.453-32.533,10.453s-23.36-4.8-32.64-10.453c-14.507-8.96-29.547-18.133-57.387-18.133 c-32.213,0-68.693,28.48-93.76,52.373C37.547,181.547,0,232.213,0,256c0,12.693,8.107,28.907,24.213,48 c12.16,14.507,28.587,31.147,46.293,46.827c32,28.267,53.227,44.373,80.427,53.973c27.2,9.6,56.64,11.2,105.067,11.2 c48.427,0,77.973-1.707,105.067-11.2c27.093-9.493,48.427-25.6,80.427-53.973c17.707-15.68,34.133-32.213,46.293-46.827 C503.893,284.8,512,268.587,512,256C512,232.213,474.453,181.547,439.68,148.373z M471.467,290.347 c-11.52,13.76-27.2,29.547-44.053,44.48c-30.507,26.987-49.387,41.387-73.28,49.813c-24.213,8.427-51.947,10.027-98.027,10.027 s-73.813-1.6-98.027-10.027c-24-8.427-42.773-22.72-73.387-49.813c-16.96-14.933-32.533-30.72-44.16-44.48 c-17.813-21.333-19.2-31.68-19.2-34.347c0-11.733,26.24-54.507,65.707-92.267c30.827-29.547,59.627-46.4,78.933-46.4 c21.76,0,33.067,6.933,46.293,15.04c9.92,6.08,22.187,13.547,43.733,13.547c21.547,0,33.813-7.573,43.733-13.653 c13.12-8,24.533-15.04,46.187-15.04c19.307,0,48.107,16.96,79.04,46.4c39.467,37.76,65.707,80.533,65.707,92.267 C490.667,258.667,489.387,269.013,471.467,290.347z"/> <path d="M452.587,253.653c-14.827-7.147-32-19.2-48.64-30.933c-30.4-21.333-59.2-41.6-83.947-41.6 c-16.64,0-26.133,3.413-35.307,6.72c-8.853,3.2-17.28,6.293-34.027,6.293s-25.173-2.987-34.027-6.293 c-9.173-3.307-18.667-6.72-35.307-6.72c-22.187,0-45.547,16.853-70.187,34.667c-19.84,14.293-40.32,29.12-61.44,36.693 c-5.547,2.027-8.427,8.107-6.507,13.653c1.493,4.267,5.547,7.147,10.133,7.04c19.84,0,39.573,11.947,60.373,24.64 c25.173,15.253,53.76,32.64,88.853,32.64c8,0,18.133-2.773,28.8-5.653c8.427-2.347,18.133-4.907,23.36-4.907h0.107 c4.8,0,13.76,2.56,21.76,4.8c10.24,2.88,19.947,5.653,27.733,5.653c31.04,0,61.547-17.6,88.427-33.067 c20.907-12.053,40.747-23.467,55.36-23.467c5.867,0,10.667-4.8,10.667-10.667C458.56,259.2,456.32,255.467,452.587,253.653z M381.867,279.147c-25.813,14.827-52.48,30.187-77.76,30.187c-4.907,0-13.973-2.56-21.973-4.8 c-10.133-2.88-19.733-5.547-27.413-5.653c-8.32,0.427-18.347,2.667-29.12,5.653c-8.427,2.24-18.027,4.907-23.253,4.907 c-29.12,0-53.867-15.04-77.76-29.547c-13.12-8-25.813-15.68-38.933-20.907c13.333-7.893,26.027-17.067,37.867-25.493 c21.76-15.787,42.347-30.613,57.6-30.613c12.907,0,19.84,2.56,28.053,5.44c9.707,3.52,20.8,7.467,41.28,7.467 c20.48,0,31.467-3.947,41.28-7.467c8.213-2.987,15.253-5.44,28.16-5.44c18.133,0,45.333,19.2,71.787,37.76 c9.173,6.507,18.667,13.12,27.84,18.987C407.253,264.427,394.773,271.68,381.867,279.147z"/> </g> </g> </g> </g>
</svg>